G04 EAGLE Gerber RS-274X export*
G75*
%MOMM*%
%FSLAX34Y34*%
%LPD*%
%IN*%
%IPPOS*%
%AMOC8*
5,1,8,0,0,1.08239X$1,22.5*%
G01*
%ADD10C,0.254000*%


D10*
X0Y0D02*
X800100Y0D01*
X800100Y990600D01*
X0Y990600D01*
X0Y0D01*
X186055Y913994D02*
X185976Y913187D01*
X185817Y912392D01*
X185582Y911616D01*
X185271Y910866D01*
X184889Y910151D01*
X184438Y909477D01*
X183924Y908850D01*
X183350Y908276D01*
X182723Y907762D01*
X182049Y907311D01*
X181334Y906929D01*
X180584Y906618D01*
X179808Y906383D01*
X179013Y906225D01*
X178206Y906145D01*
X177394Y906145D01*
X176587Y906225D01*
X175792Y906383D01*
X175016Y906618D01*
X174266Y906929D01*
X173551Y907311D01*
X172877Y907762D01*
X172250Y908276D01*
X171676Y908850D01*
X171162Y909477D01*
X170711Y910151D01*
X170329Y910866D01*
X170018Y911616D01*
X169783Y912392D01*
X169625Y913187D01*
X169545Y913994D01*
X169545Y914806D01*
X169625Y915613D01*
X169783Y916408D01*
X170018Y917184D01*
X170329Y917934D01*
X170711Y918649D01*
X171162Y919323D01*
X171676Y919950D01*
X172250Y920524D01*
X172877Y921038D01*
X173551Y921489D01*
X174266Y921871D01*
X175016Y922182D01*
X175792Y922417D01*
X176587Y922576D01*
X177394Y922655D01*
X178206Y922655D01*
X179013Y922576D01*
X179808Y922417D01*
X180584Y922182D01*
X181334Y921871D01*
X182049Y921489D01*
X182723Y921038D01*
X183350Y920524D01*
X183924Y919950D01*
X184438Y919323D01*
X184889Y918649D01*
X185271Y917934D01*
X185582Y917184D01*
X185817Y916408D01*
X185976Y915613D01*
X186055Y914806D01*
X186055Y913994D01*
X186055Y101194D02*
X185976Y100387D01*
X185817Y99592D01*
X185582Y98816D01*
X185271Y98066D01*
X184889Y97351D01*
X184438Y96677D01*
X183924Y96050D01*
X183350Y95476D01*
X182723Y94962D01*
X182049Y94511D01*
X181334Y94129D01*
X180584Y93818D01*
X179808Y93583D01*
X179013Y93425D01*
X178206Y93345D01*
X177394Y93345D01*
X176587Y93425D01*
X175792Y93583D01*
X175016Y93818D01*
X174266Y94129D01*
X173551Y94511D01*
X172877Y94962D01*
X172250Y95476D01*
X171676Y96050D01*
X171162Y96677D01*
X170711Y97351D01*
X170329Y98066D01*
X170018Y98816D01*
X169783Y99592D01*
X169625Y100387D01*
X169545Y101194D01*
X169545Y102006D01*
X169625Y102813D01*
X169783Y103608D01*
X170018Y104384D01*
X170329Y105134D01*
X170711Y105849D01*
X171162Y106523D01*
X171676Y107150D01*
X172250Y107724D01*
X172877Y108238D01*
X173551Y108689D01*
X174266Y109071D01*
X175016Y109382D01*
X175792Y109617D01*
X176587Y109776D01*
X177394Y109855D01*
X178206Y109855D01*
X179013Y109776D01*
X179808Y109617D01*
X180584Y109382D01*
X181334Y109071D01*
X182049Y108689D01*
X182723Y108238D01*
X183350Y107724D01*
X183924Y107150D01*
X184438Y106523D01*
X184889Y105849D01*
X185271Y105134D01*
X185582Y104384D01*
X185817Y103608D01*
X185976Y102813D01*
X186055Y102006D01*
X186055Y101194D01*
X630555Y913994D02*
X630476Y913187D01*
X630317Y912392D01*
X630082Y911616D01*
X629771Y910866D01*
X629389Y910151D01*
X628938Y909477D01*
X628424Y908850D01*
X627850Y908276D01*
X627223Y907762D01*
X626549Y907311D01*
X625834Y906929D01*
X625084Y906618D01*
X624308Y906383D01*
X623513Y906225D01*
X622706Y906145D01*
X621894Y906145D01*
X621087Y906225D01*
X620292Y906383D01*
X619516Y906618D01*
X618766Y906929D01*
X618051Y907311D01*
X617377Y907762D01*
X616750Y908276D01*
X616176Y908850D01*
X615662Y909477D01*
X615211Y910151D01*
X614829Y910866D01*
X614518Y911616D01*
X614283Y912392D01*
X614125Y913187D01*
X614045Y913994D01*
X614045Y914806D01*
X614125Y915613D01*
X614283Y916408D01*
X614518Y917184D01*
X614829Y917934D01*
X615211Y918649D01*
X615662Y919323D01*
X616176Y919950D01*
X616750Y920524D01*
X617377Y921038D01*
X618051Y921489D01*
X618766Y921871D01*
X619516Y922182D01*
X620292Y922417D01*
X621087Y922576D01*
X621894Y922655D01*
X622706Y922655D01*
X623513Y922576D01*
X624308Y922417D01*
X625084Y922182D01*
X625834Y921871D01*
X626549Y921489D01*
X627223Y921038D01*
X627850Y920524D01*
X628424Y919950D01*
X628938Y919323D01*
X629389Y918649D01*
X629771Y917934D01*
X630082Y917184D01*
X630317Y916408D01*
X630476Y915613D01*
X630555Y914806D01*
X630555Y913994D01*
X630555Y101194D02*
X630476Y100387D01*
X630317Y99592D01*
X630082Y98816D01*
X629771Y98066D01*
X629389Y97351D01*
X628938Y96677D01*
X628424Y96050D01*
X627850Y95476D01*
X627223Y94962D01*
X626549Y94511D01*
X625834Y94129D01*
X625084Y93818D01*
X624308Y93583D01*
X623513Y93425D01*
X622706Y93345D01*
X621894Y93345D01*
X621087Y93425D01*
X620292Y93583D01*
X619516Y93818D01*
X618766Y94129D01*
X618051Y94511D01*
X617377Y94962D01*
X616750Y95476D01*
X616176Y96050D01*
X615662Y96677D01*
X615211Y97351D01*
X614829Y98066D01*
X614518Y98816D01*
X614283Y99592D01*
X614125Y100387D01*
X614045Y101194D01*
X614045Y102006D01*
X614125Y102813D01*
X614283Y103608D01*
X614518Y104384D01*
X614829Y105134D01*
X615211Y105849D01*
X615662Y106523D01*
X616176Y107150D01*
X616750Y107724D01*
X617377Y108238D01*
X618051Y108689D01*
X618766Y109071D01*
X619516Y109382D01*
X620292Y109617D01*
X621087Y109776D01*
X621894Y109855D01*
X622706Y109855D01*
X623513Y109776D01*
X624308Y109617D01*
X625084Y109382D01*
X625834Y109071D01*
X626549Y108689D01*
X627223Y108238D01*
X627850Y107724D01*
X628424Y107150D01*
X628938Y106523D01*
X629389Y105849D01*
X629771Y105134D01*
X630082Y104384D01*
X630317Y103608D01*
X630476Y102813D01*
X630555Y102006D01*
X630555Y101194D01*
M02*
