M48
;GenerationSoftware,Autodesk,EAGLE,9.5.2*%
;CreationDate,2020-01-05T20:18:57Z*%
FMAT,2
ICI,OFF
METRIC,TZ,000.000
T11C0.350
T10C0.600
T9C0.700
T8C0.800
T7C0.914
T6C1.000
T5C1.016
T4C1.200
T3C1.300
T2C1.651
T1C2.083
%
G90
M71
T1
X32512Y4826
X27813Y4826
X37211Y4826
T2
X17780Y91440
X17780Y10160
X62230Y91440
X62230Y10160
T3
X3937Y4017
X75946Y8937
X75946Y3937
X3937Y9017
X19732Y3810
X14732Y3810
T4
X25527Y47371
X10033Y32131
X10033Y41529
X25527Y19431
X25527Y41529
X25527Y32131
X25527Y29591
X25527Y34671
X25527Y26289
X25527Y14351
X10033Y16891
X10033Y26289
X25527Y16891
X25527Y44831
X25527Y49911
X10033Y47371
X10033Y56769
X25527Y56769
T5
X2540Y91440
X43815Y96393
X41275Y96393
X38735Y96393
X3810Y38100
X3810Y35560
X3810Y28575
X3810Y26035
X3810Y19812
X3810Y17272
X66675Y96520
X64135Y96520
X61595Y96520
X59055Y96520
X56515Y96520
X53975Y96520
X2540Y82550
X77470Y17018
X77470Y19812
X77470Y25146
X77470Y27940
X77470Y33528
X77470Y76835
X77470Y74295
X77470Y71755
X77470Y69215
X15240Y96520
X17780Y96520
X20320Y96520
X22860Y96520
X2540Y69215
X2540Y71755
X2540Y74295
X2540Y76835
X2540Y63500
X2540Y60960
X2540Y58420
X77470Y58420
X77470Y60960
X77470Y63500
X64770Y80010
X77470Y36322
X69850Y80010
X64770Y82550
X67310Y82550
X69850Y82550
X64770Y85090
X33020Y96520
X69850Y85090
X30480Y96520
X27940Y96520
X2540Y87630
X51435Y96520
X2540Y85090
X77470Y82550
X77470Y85090
X77470Y87630
X67310Y85090
X77470Y91440
X77470Y93980
X77470Y96520
X2540Y96520
X2540Y93980
X67310Y80010
T6
X2540Y45085
X2540Y47625
X2540Y50165
X2540Y52705
X63119Y64897
X63119Y62357
X63119Y59817
X63119Y57277
X77470Y45085
X77470Y47625
X77470Y50165
X77470Y52705
X62865Y72390
X65405Y72390
X67945Y72390
X70485Y72390
X43815Y40005
X43815Y37465
X43815Y34925
X43815Y32385
X43815Y29845
X43815Y27305
X43815Y24765
X43815Y22225
X43815Y19685
X43815Y17145
X43815Y14605
X43815Y12065
X59055Y40005
X59055Y37465
X59055Y34925
X59055Y32385
X59055Y29845
X59055Y27305
X59055Y22225
X59055Y19685
X59055Y14605
X59055Y12065
X59055Y24765
X43815Y9525
X43815Y6985
X43815Y4445
X59055Y9525
X59055Y6985
X59055Y4445
X19685Y61468
X22225Y61468
X17145Y61468
X14605Y61468
X12065Y61468
X9525Y61468
X59055Y17145
X39751Y60833
X39751Y58293
X39751Y55753
X39751Y53213
X39751Y50673
X39751Y48133
X29591Y60833
X29591Y58293
X29591Y55753
X29591Y53213
X29591Y50673
X29591Y48133
T7
X32893Y41529
X32893Y33909
X35433Y23749
X35433Y26289
X35433Y28829
X32893Y26289
X36195Y66421
X33655Y66421
X31115Y66421
X35433Y38989
X35433Y41529
X36830Y15113
X34290Y15113
X31750Y15113
X35433Y36449
X35433Y33909
X36830Y19431
X35433Y44069
X34290Y19431
X31750Y19431
X35433Y31369
T8
X33655Y71120
X11572Y88187
X36195Y71120
X41275Y71120
X38735Y71120
X16652Y85648
X9032Y85648
X14112Y85648
X11572Y85648
X14112Y88187
X16652Y88187
X9032Y88187
X31115Y71120
T9
X43815Y64770
T10
X59309Y54610
X59309Y49530
X59309Y57150
X59309Y59690
X59309Y62230
X43815Y46990
X43815Y49530
X43815Y52070
X43815Y54610
X43815Y57150
X43815Y59690
X59309Y52070
X43815Y62230
X59309Y64770
X59309Y46990
T11
X37465Y88265
X26035Y81915
X10160Y28575
X38100Y23749
X43180Y70485
X16637Y66167
X13462Y67183
X19050Y48895
X19050Y40005
X48895Y5588
X19050Y33655
X19050Y26035
X19050Y18415
X25781Y12192
X41933Y41402
X27940Y39243
X27940Y24003
X27940Y31623
X51689Y2921
X41910Y3175
X38227Y67564
X7620Y44831
X2664Y42545
X67310Y76835
X66675Y34544
X45720Y59690
X51689Y5588
X39624Y6350
X39624Y2029
X72136Y65405
X39370Y64135
X64770Y48999
X62230Y46482
X66040Y51435
X58420Y45339
X40132Y62992
X62992Y45466
X57277Y44577
X40005Y86360
X56515Y86360
X71247Y63985
X74676Y92202
X29210Y90805
X72390Y62845
X55118Y14605
X55984Y12065
X40640Y5080
X28702Y78867
X54356Y52324
X66040Y14351
X53594Y80010
X52832Y49530
X52324Y64770
X71097Y87226
X75438Y81407
X51308Y83185
X49657Y85090
X62275Y14605
X48641Y89408
X27940Y86360
X61999Y13612
X28575Y75057
X68072Y60960
X9017Y10668
X25400Y22860
X29210Y22860
X45720Y42395
X50315Y70485
X49784Y37973
X49380Y73025
X49403Y40005
X71882Y33020
X71882Y24257
X71882Y16002
X71882Y39624
X59690Y43561
X43838Y43561
X29210Y26543
X29210Y36449
X30734Y38100
X24765Y38100
X37211Y55753
X38100Y38989
X42926Y66548
M30